<svg width="35" height="28" viewBox="0 0 35 28" fill="none" xmlns="http://www.w3.org/2000/svg">
<path d="M34.1455 3.5808C32.9207 4.10914 31.5878 4.48939 30.2149 4.63749C31.6403 3.79068 32.7077 2.45287 33.2168 0.875046C31.8793 1.67072 30.414 2.22866 28.886 2.52412C28.2474 1.84138 27.475 1.29748 26.617 0.926309C25.7589 0.555138 24.8337 0.364651 23.8988 0.366716C20.1163 0.366716 17.0744 3.43271 17.0744 7.19515C17.0744 7.72349 17.1384 8.25183 17.2425 8.76016C11.5788 8.46397 6.52753 5.75821 3.16936 1.61553C2.55746 2.66067 2.2368 3.85068 2.24075 5.06176C2.24075 7.4313 3.44553 9.52066 5.28273 10.7495C4.20004 10.7068 3.14271 10.4092 2.19672 9.88089V9.96494C2.19672 13.2831 4.54225 16.0329 7.66827 16.6653C7.08133 16.8178 6.47753 16.8957 5.87111 16.8974C5.42682 16.8974 5.00655 16.8534 4.58227 16.7934C5.44683 19.4991 7.96447 21.4644 10.9624 21.5284C8.61689 23.3656 5.67898 24.4463 2.48891 24.4463C1.91654 24.4463 1.3882 24.4263 0.839844 24.3623C3.86581 26.3035 7.45614 27.4243 11.3226 27.4243C23.8748 27.4243 30.7432 17.0255 30.7432 7.99967C30.7432 7.70348 30.7432 7.40728 30.7232 7.11109C32.0521 6.13846 33.2168 4.93368 34.1455 3.5808Z" fill="#2091F9"/>
</svg>
