<svg width="22" height="20" viewBox="0 0 22 20" fill="none" xmlns="http://www.w3.org/2000/svg">
<path fill-rule="evenodd" clip-rule="evenodd" d="M7.14762 6.17077C8.14245 5.24408 9.49173 4.72347 10.8986 4.72347C12.3055 4.72347 13.6548 5.24408 14.6497 6.17077C15.6445 7.09746 16.2034 8.35432 16.2034 9.66485C16.2034 10.9754 15.6445 12.2322 14.6497 13.1589C13.6548 14.0856 12.3055 14.6062 10.8986 14.6062C9.49173 14.6062 8.14245 14.0856 7.14762 13.1589C6.15279 12.2322 5.59389 10.9754 5.59389 9.66485C5.59389 8.35432 6.15279 7.09746 7.14762 6.17077ZM9.58082 12.6284C9.99862 12.7896 10.4464 12.8726 10.8986 12.8726C11.8119 12.8726 12.6878 12.5346 13.3336 11.9331C13.9794 11.3315 14.3422 10.5156 14.3422 9.66485C14.3422 8.81411 13.9794 7.99821 13.3336 7.39665C12.6878 6.79508 11.8119 6.45712 10.8986 6.45712C10.4464 6.45712 9.99862 6.54009 9.58082 6.7013C9.16302 6.8625 8.78341 7.09878 8.46364 7.39665C8.14387 7.69451 7.89021 8.04813 7.71716 8.43731C7.5441 8.82649 7.45503 9.24361 7.45503 9.66485C7.45503 10.0861 7.5441 10.5032 7.71716 10.8924C7.89021 11.2816 8.14387 11.6352 8.46364 11.9331C8.78341 12.2309 9.16302 12.4672 9.58082 12.6284Z" fill="white"/>
<path d="M17.3794 5.45968C17.6145 5.24063 17.7466 4.94353 17.7466 4.63375C17.7466 4.32396 17.6145 4.02686 17.3794 3.80781C17.1442 3.58876 16.8253 3.4657 16.4927 3.4657C16.1601 3.4657 15.8412 3.58876 15.606 3.80781C15.3709 4.02686 15.2388 4.32396 15.2388 4.63375C15.2388 4.94353 15.3709 5.24063 15.606 5.45968C15.8412 5.67873 16.1601 5.8018 16.4927 5.8018C16.8253 5.8018 17.1442 5.67873 17.3794 5.45968Z" fill="white"/>
<path fill-rule="evenodd" clip-rule="evenodd" d="M6.64383 0.108951C7.74469 0.0621649 8.09559 0.0512695 10.8986 0.0512695C13.7024 0.0512695 14.0526 0.0628057 15.1528 0.108951C16.2515 0.155737 17.0029 0.319168 17.6593 0.555662C18.3476 0.797193 18.9713 1.17556 19.4867 1.66443C20.0117 2.14467 20.4179 2.72581 20.677 3.36731C20.9322 3.97874 21.107 4.67797 21.1572 5.70149C21.2075 6.72694 21.2192 7.0538 21.2192 9.66485C21.2192 12.2759 21.2075 12.6028 21.1572 13.6282C21.107 14.6517 20.9322 15.351 20.6777 15.9624C20.4184 16.6036 20.0122 17.1845 19.4874 17.6646C18.9713 18.1543 18.3473 18.5324 17.6593 18.7734C17.0029 19.0112 16.2522 19.174 15.1534 19.2208C14.0526 19.2675 13.7017 19.2784 10.8986 19.2784C8.09559 19.2784 7.74469 19.2675 6.64383 19.2208C5.54504 19.174 4.7944 19.0112 4.13801 18.774C3.44964 18.5325 2.82604 18.1541 2.31059 17.6653C1.78494 17.1846 1.379 16.6033 1.1203 15.9624C0.865035 15.351 0.690275 14.6517 0.640048 13.6282C0.589822 12.6028 0.578125 12.2765 0.578125 9.66485C0.578125 7.05316 0.590509 6.72694 0.640048 5.70213C0.690275 4.67861 0.865723 3.97874 1.11961 3.36731C1.3789 2.72608 1.78509 2.14519 2.30991 1.66507C2.82593 1.17542 3.44998 0.797283 4.13801 0.556303C4.7944 0.318527 5.54504 0.155737 6.64383 0.108951ZM15.0695 1.8394C13.981 1.79325 13.6542 1.78364 10.8986 1.78364C8.14306 1.78364 7.81625 1.79325 6.72778 1.8394C5.72187 1.88234 5.17557 2.03872 4.8116 2.17074C4.36328 2.32455 3.95771 2.57006 3.62474 2.8892C3.26421 3.22567 3.03991 3.54613 2.85345 3.99476C2.71103 4.3338 2.54384 4.84268 2.49774 5.77968C2.4482 6.79359 2.43788 7.09802 2.43788 9.66485C2.43788 12.2317 2.4482 12.5361 2.49774 13.55C2.54384 14.487 2.71172 14.9959 2.85345 15.3349C3.01867 15.7525 3.28222 16.1303 3.62474 16.4405C3.95775 16.7596 4.36331 17.0051 4.8116 17.159C5.17557 17.2916 5.72187 17.4474 6.72778 17.4903C7.81625 17.5365 8.14237 17.5461 10.8986 17.5461C13.6549 17.5461 13.981 17.5365 15.0695 17.4903C16.0754 17.4474 16.6217 17.291 16.9857 17.159C17.434 17.0052 17.8396 16.7597 18.1725 16.4405C18.5151 16.1303 18.7786 15.7525 18.9438 15.3349C19.0862 14.9959 19.2534 14.487 19.2995 13.55C19.3491 12.5361 19.3594 12.2317 19.3594 9.66485C19.3594 7.09802 19.3491 6.79359 19.2995 5.77968C19.2534 4.84268 19.0856 4.3338 18.9438 3.99476C18.7574 3.54613 18.5338 3.22567 18.1725 2.8892C17.8113 2.55336 17.4673 2.34443 16.9857 2.17074C16.6217 2.03808 16.0754 1.88234 15.0695 1.8394Z" fill="white"/>
</svg>
