<svg width="33" height="33" viewBox="0 0 33 33" fill="none" xmlns="http://www.w3.org/2000/svg">
<path d="M31.2126 0.885254H1.75349C1.04503 0.885254 0.472656 1.45763 0.472656 2.16609V31.6252C0.472656 32.3337 1.04503 32.906 1.75349 32.906H31.2126C31.9211 32.906 32.4934 32.3337 32.4934 31.6252V2.16609C32.4934 1.45763 31.9211 0.885254 31.2126 0.885254ZM27.5142 10.2313H24.9565C22.9512 10.2313 22.563 11.1839 22.563 12.5848V15.6708H27.3501L26.7257 20.502H22.563V32.906H17.5718V20.506H13.397V15.6708H17.5718V12.1085C17.5718 7.97385 20.0974 5.72039 23.7878 5.72039C25.5569 5.72039 27.0739 5.85248 27.5182 5.91252V10.2313H27.5142Z" fill="#2091F9"/>
</svg>
