<svg width="22" height="21" viewBox="0 0 22 21" fill="none" xmlns="http://www.w3.org/2000/svg">
<path d="M21.5785 1.65527V18.8003C21.5785 19.1923 21.4186 19.5683 21.134 19.8455C20.8494 20.1227 20.4633 20.2784 20.0608 20.2784H2.45522C2.0527 20.2784 1.66666 20.1227 1.38203 19.8455C1.0974 19.5683 0.9375 19.1923 0.9375 18.8003L0.9375 1.65527C0.9375 1.26327 1.0974 0.887332 1.38203 0.610149C1.66666 0.332966 2.0527 0.177246 2.45522 0.177246L20.0608 0.177246C20.4633 0.177246 20.8494 0.332966 21.134 0.610149C21.4186 0.887332 21.5785 1.26327 21.5785 1.65527ZM7.00839 7.86297H3.97294V17.3223H7.00839V7.86297ZM7.28158 4.61132C7.28318 4.38772 7.23954 4.166 7.15315 3.95882C7.06676 3.75165 6.93931 3.56307 6.77808 3.40386C6.61685 3.24466 6.425 3.11793 6.21348 3.03093C6.00196 2.94393 5.77491 2.89836 5.54531 2.89681H5.49067C5.02374 2.89681 4.57593 3.07745 4.24576 3.39898C3.9156 3.72051 3.73011 4.1566 3.73011 4.61132C3.73011 5.06603 3.9156 5.50212 4.24576 5.82366C4.57593 6.14519 5.02374 6.32583 5.49067 6.32583C5.72029 6.33133 5.94878 6.29271 6.16307 6.21219C6.37736 6.13167 6.57326 6.01081 6.73958 5.85653C6.90589 5.70226 7.03936 5.51758 7.13236 5.31305C7.22536 5.10852 7.27607 4.88815 7.28158 4.66453V4.61132ZM18.5431 11.5758C18.5431 8.73205 16.6854 7.62649 14.8398 7.62649C14.2356 7.59702 13.6339 7.72236 13.0949 7.99C12.5559 8.25764 12.0984 8.65823 11.768 9.15181H11.683V7.86297H8.82966V17.3223H11.8651V12.2911C11.8212 11.7758 11.9879 11.2645 12.3289 10.8682C12.6699 10.4719 13.1577 10.2227 13.6864 10.1746H13.8017C14.767 10.1746 15.4834 10.7658 15.4834 12.2557V17.3223H18.5188L18.5431 11.5758Z" fill="white"/>
</svg>
