<svg width="26" height="33" viewBox="0 0 26 33" fill="none" xmlns="http://www.w3.org/2000/svg">
<path d="M11.7485 31.756C12.0164 31.9473 12.3375 32.0502 12.6668 32.0502C12.9961 32.0502 13.3172 31.9473 13.5851 31.756C14.0665 31.4155 25.3794 23.2471 25.3335 13.0505C25.3335 6.06637 19.6509 0.383789 12.6668 0.383789C5.68272 0.383789 0.000139393 6.06637 0.000139393 13.0425C-0.0457773 23.2471 11.2671 31.4155 11.7485 31.756ZM12.6668 3.55046C17.9061 3.55046 22.1668 7.81121 22.1668 13.0584C22.2001 20.0852 15.2191 26.3948 12.6668 28.4642C10.1161 26.3932 3.13356 20.082 3.16681 13.0505C3.16681 7.81121 7.42756 3.55046 12.6668 3.55046Z" fill="#2091F9"/>
</svg>
