<svg width="23" height="16" viewBox="0 0 23 16" fill="none" xmlns="http://www.w3.org/2000/svg">
<path fill-rule="evenodd" clip-rule="evenodd" d="M20.1778 1.2483C21.1426 1.4932 21.9058 2.21431 22.165 3.12588C22.6402 4.78577 22.6546 8.22799 22.6546 8.22799C22.6546 8.22799 22.6546 11.6838 22.1794 13.3301C21.9202 14.2417 21.157 14.9628 20.1922 15.2077C18.4497 15.6567 11.4367 15.6567 11.4367 15.6567C11.4367 15.6567 4.42368 15.6567 2.68123 15.2077C1.7164 14.9628 0.953174 14.2417 0.693965 13.3301C0.21875 11.6702 0.21875 8.22799 0.21875 8.22799C0.21875 8.22799 0.21875 4.78577 0.679564 3.13949C0.938772 2.22791 1.702 1.50681 2.66683 1.26191C4.40928 0.812919 11.4223 0.799316 11.4223 0.799316C11.4223 0.799316 18.4353 0.799316 20.1778 1.2483ZM15.008 8.228L9.19023 11.4117V5.04428L15.008 8.228Z" fill="white"/>
</svg>
