<svg width="33" height="33" viewBox="0 0 33 33" fill="none" xmlns="http://www.w3.org/2000/svg">
<path d="M31.197 0.885254H1.73786C1.0294 0.885254 0.457031 1.45763 0.457031 2.16609V31.6252C0.457031 32.3337 1.0294 32.906 1.73786 32.906H31.197C31.9054 32.906 32.4778 32.3337 32.4778 31.6252V2.16609C32.4778 1.45763 31.9054 0.885254 31.197 0.885254ZM9.95519 28.171H5.20411V12.889H9.95519V28.171ZM7.58165 10.7997C7.03701 10.7997 6.50459 10.6382 6.05173 10.3356C5.59887 10.033 5.24591 9.60292 5.03749 9.09973C4.82906 8.59654 4.77453 8.04285 4.88078 7.50866C4.98704 6.97448 5.24931 6.4838 5.63443 6.09868C6.01956 5.71355 6.51023 5.45128 7.04442 5.34503C7.5786 5.23877 8.13229 5.2933 8.63548 5.50173C9.13867 5.71016 9.56875 6.06312 9.87134 6.51598C10.1739 6.96884 10.3354 7.50125 10.3354 8.0459C10.3314 9.56689 9.09864 10.7997 7.58165 10.7997ZM27.7427 28.171H22.9957V20.7381C22.9957 18.965 22.9636 16.6875 20.5261 16.6875C18.0565 16.6875 17.6762 18.6168 17.6762 20.6101V28.171H12.9331V12.889H17.4881V14.9784H17.5521C18.1845 13.7776 19.7335 12.5088 22.047 12.5088C26.8582 12.5088 27.7427 15.6748 27.7427 19.7895V28.171Z" fill="#2091F9"/>
</svg>
